HIERARCHY
ROOT hip
{
OFFSET 0 0 0
CHANNELS 3 Zrotation Yrotation Xrotation 
JOINT abdomen
{
	OFFSET 0 20.6881 -0.73152
	CHANNELS 3 Zrotation Yrotation Xrotation 
	JOINT chest
	{
		OFFSET 0 11.7043 -0.48768
		CHANNELS 3 Zrotation Yrotation Xrotation 
		JOINT neck
		{
			OFFSET 0 22.1894 -2.19456
			CHANNELS 3 Zrotation Yrotation Xrotation 
			End Site
			{
				OFFSET 0 10 0
			}
		}
		JOINT rcollar
		{
			OFFSET -2.68224 19.2634 -4.8768
			CHANNELS 3 Zrotation Yrotation Xrotation 
			JOINT rshldr
			{
				OFFSET -8.77824 -1.95073 1.46304
				CHANNELS 3 Zrotation Yrotation Xrotation 
				JOINT rforearm
				{
					OFFSET -28.1742 -1.7115 0.48768
					CHANNELS 3 Zrotation Yrotation Xrotation 
					JOINT rhand
					{
						OFFSET -22.5879 0.773209 7.07136
						CHANNELS 3 Zrotation Yrotation Xrotation 
						End Site
						{
							OFFSET -11.24714 1.18213 3.41376
						}
					}
				}
			}
		}
		JOINT lcollar
		{
			OFFSET 2.68224 19.2634 -4.8768
			CHANNELS 3 Zrotation Yrotation Xrotation 
			JOINT lshldr
			{
				OFFSET 8.77824 -1.95073 1.46304
				CHANNELS 3 Zrotation Yrotation Xrotation 
				JOINT lforearm
				{
					OFFSET 28.1742 -1.7115 0.48768
					CHANNELS 3 Zrotation Yrotation Xrotation 
					JOINT lhand
					{
						OFFSET 22.5879 0.773209 7.07136
						CHANNELS 3 Zrotation Yrotation Xrotation 
						End Site
						{
							OFFSET 11.24714 1.18213 3.41376
						}
					}
				}
			}
		}
	}
}
JOINT rbuttock
{
	OFFSET -8.77824 4.35084 1.2192
	CHANNELS 3 Zrotation Yrotation Xrotation 
	JOINT rthigh
	{
		OFFSET 0 -1.70687 -2.19456
		CHANNELS 3 Zrotation Yrotation Xrotation 
		JOINT rshin
		{
			OFFSET 0 -36.8199 0.73152
			CHANNELS 3 Zrotation Yrotation Xrotation 
			JOINT rfoot
			{
				OFFSET 0.73152 -45.1104 -5.12064
				CHANNELS 3 Zrotation Yrotation Xrotation 
				End Site
				{
					OFFSET -1.1221 -3.69964 12.103
				}
			}
		}
	}
}
JOINT lbuttock
{
	OFFSET 8.77824 4.35084 1.2192
	CHANNELS 3 Zrotation Yrotation Xrotation 
	JOINT lthigh
	{
		OFFSET 0 -1.70687 -2.19456
		CHANNELS 3 Zrotation Yrotation Xrotation 
		JOINT lshin
		{
			OFFSET 0 -36.8199 0.73152
			CHANNELS 3 Zrotation Yrotation Xrotation 
			JOINT lfoot
			{
				OFFSET -0.73152 -45.1104 -5.12064
				CHANNELS 3 Zrotation Yrotation Xrotation 
				End Site
				{
					OFFSET 1.1221 -3.69964 12.103
				}
			}
		}
	}
}
}
MOTION
Frames: 6
Frame Time: 0.00833333
-20.41 -69.3505 36.428 16.9158871727169 13.7163967869541 -0.835453667729977 -0.117973942667674 3.65219578825709 -11.0765788934142 -11.9832351922239 -10.8435675441739 7.05019696190614 6.52101999999953E-14 -4.70523E-13 5.73304E-13 83.5144644959313 38.2876506271135 -61.4612223796026 -2.85666464643102 4.82007136984597 -0.800818289514565 5.53648826893854 7.61357992147523 72.0101716309887 6.51472999999953E-14 -4.70921E-13 5.73286E-13 -18.031356398672 -32.1508287607138 0.208693173555947 18.7445818482855 -26.9746196208882 -8.58233953947575 -0.0202688002577756 -0.570965247486787 4.06617223493218 -2.03217E-16 -3.88251E-19 0 -22.5199263270821 24.4894056197521 -46.4510975524756 0.177442368573878 0.600420552697387 22.5065035154376 0.0362685467781769 -1.64380712756996 -68.8288972196278 2.03217E-16 3.88251E-19 0 18.1702511381701 -18.4567498914357 -48.7306021043822 0.00834040910478201 -0.299621630904449 30.0546533016145 1.39648727816245 14.7904892998285 7.63761101036384 
-24.731 -71.9337 41.337 17.1749170882063 14.3560263113637 -1.97422080534683 -0.233344446956786 3.74601477889358 -10.328909442835 -12.200204299374 -10.488955871767 7.13162298969529 1.91544999999994E-13 -4.25272E-13 8.60193E-13 83.0687306620662 36.4813189022212 -58.1689576288847 -2.95651251822637 4.98476539545175 -0.833314953919627 4.84036357464267 7.36035256535664 66.6123567160318 1.91418999999994E-13 -4.25671E-13 8.6017E-13 -19.7074773813702 -30.9941910205346 1.47733129801723 19.1991832337001 -27.4716293180832 -8.86929433714715 -0.0122774075489789 -0.505538244298916 3.59689019358674 -2.03217E-16 -3.88251E-19 0 -22.0851836058446 23.5641792577454 -44.7315264939388 0.168010042984683 0.578571725642007 21.4135455895905 0.0883960244662142 -0.957257886327973 -69.3841457786945 2.03217E-16 3.88251E-19 0 18.0255916939867 -17.0825816427796 -49.8089637091666 0.0177721258255809 -0.296292461304701 30.5108514640293 1.31949956840836 13.4449948623763 8.47039902203336 
-31.469 -74.3915 48.731 17.3524355747576 15.1831942295544 -3.10615632272348 -0.321441702062909 3.892337258513 -9.53728375792279 -12.3143884321167 -10.1245035255184 7.07684052990759 3.41833999999995E-13 -2.469E-13 1.14191E-12 82.5105249587191 34.8327052098624 -54.9560700128167 -3.14134317178071 5.28977065297372 -0.893307748801349 4.18865945011983 7.0372236120288 61.4115570782349 3.41622999999995E-13 -2.47273E-13 1.14188E-12 -21.1707862876399 -29.7669464646075 2.46441762614391 19.6829529584081 -27.9935769400667 -9.17721516766575 -0.0103195063431421 -0.491247082327335 3.49423859185553 -2.03217E-16 -3.88251E-19 0 -21.1493157224255 21.8356003184806 -43.1082749203119 0.151621038393555 0.539964486710353 20.2423382659447 0.15430074619826 0.115267485613562 -69.1248040288768 2.03217E-16 3.88251E-19 0 17.1832542408748 -14.7335473808672 -50.7227515891543 0.0274994371611023 -0.300706452378259 31.4963834911485 1.21145555320619 11.424527510724 9.6976755686007 
-40.082 -76.6611 57.686 17.4164594018614 15.9774444473079 -4.06093136039727 -0.40167885620271 4.04242338049806 -8.80330483290229 -12.3533115880812 -9.76677148715328 7.02076705217665 4.67942999999999E-13 -3.72267E-14 1.3387E-12 81.942906259843 33.3567257890612 -51.7313819968175 -3.3640731934599 5.6566908459368 -0.966182403029589 3.58689443376172 6.6701253759185 56.4063478896956 4.67656999999999E-13 -3.75614E-14 1.33867E-12 -22.4670373914139 -28.4795391156944 3.21152071364869 20.1567982168682 -28.4997344093587 -9.48074014758919 -0.0137378341019942 -0.522356872999259 3.7170946927056 -2.03217E-16 -3.88251E-19 0 -20.3475971564773 20.3056683147818 -41.6217560162965 0.128389304689059 0.487451259136531 19.2326233967327 0.24414593750017 1.54570666236176 -68.9706626538535 2.03217E-16 3.88251E-19 0 15.9522655075022 -12.034746105813 -51.3147904102436 0.0318975120015183 -0.314009177499574 32.7983544922848 1.10257023160705 9.36769679612748 10.4621621951514 
-48.964 -79.4252 66.664 17.3347466063904 16.5181329767027 -4.66816743161263 -0.493477078904536 4.14753821784797 -8.2287188453662 -12.3441112942606 -9.43230267241823 7.09830356965194 5.21736000000002E-13 1.01927E-13 1.37084E-12 81.4657898413646 32.0679255281258 -48.4034069882485 -3.57761996031047 6.00711255376731 -1.03732666954792 3.04021579791428 6.28485195091058 51.59533729723 5.21421000000002E-13 1.01629E-13 1.3708E-12 -23.6421034335607 -27.1424398625004 3.76026980790789 20.5821118331036 -28.9498240584678 -9.75453201240587 -0.0218756032322863 -0.593133348403769 4.22433676286886 -2.03217E-16 -3.88251E-19 0 -20.3153222216651 19.976230772302 -40.3125939222557 0.0984265686408994 0.423882556552473 18.6240284099853 0.368088323660012 3.30601729175489 -69.8413585496668 2.03217E-16 3.88251E-19 0 14.6416450514169 -9.61120657700213 -51.4280226856011 0.0253424562191625 -0.337345870498733 34.2040750167301 1.02301736000756 7.9126997471057 9.90673988004905 
-63.2470000000001 -81.6869 80.8680000000001 17.1548960253926 16.7388915730614 -4.81752396073043 -0.635770531247761 4.19453626982615 -7.81728931881255 -12.3126590248565 -9.13839238420626 7.42466767784748 4.66670000000003E-13 1.39652E-13 1.15601E-12 81.1785334910204 31.0260179105799 -44.9270821742884 -3.78658413018808 6.34801079062137 -1.10881939527809 2.55177692768423 5.87429527808831 46.9667042924482 4.66397000000003E-13 1.39396E-13 1.15598E-12 -24.6415119929185 -25.7757163764111 4.1051705732234 20.9409329725266 -29.324436827517 -9.987414257868 -0.0361834341330641 -0.723005875036109 5.15430147747268 -2.03217E-16 -3.88251E-19 0 -21.4277697124832 21.6375922730733 -39.2685126930739 0.0544168562472028 0.334907143518741 18.5544285365807 0.560349740771001 5.80203451335633 -72.4617270137514 2.03217E-16 3.88251E-19 0 13.2752516063141 -7.5228390333971 -50.8696965661805 0.00257318178831523 -0.376851243443196 35.8447952991306 0.980922230640229 7.24679138948508 7.38774848216116 
